<svg width="1920" height="1189" viewBox="0 0 1920 1189" fill="none" xmlns="http://www.w3.org/2000/svg">
<g clip-path="url(#clip0_2139_2590)">
<rect width="1920" height="1189" fill="white"/>
<g clip-path="url(#clip1_2139_2590)">
<g clip-path="url(#clip2_2139_2590)">
<path d="M979.192 696.042C1035.44 696.042 1081.05 650.44 1081.05 594.186C1081.05 537.933 1035.44 492.331 979.192 492.331C922.938 492.331 877.336 537.933 877.336 594.186C877.336 650.44 922.938 696.042 979.192 696.042Z" stroke="url(#paint0_radial_2139_2590)" stroke-opacity="0.1" stroke-width="50" stroke-miterlimit="1.5" stroke-linejoin="round"/>
<path d="M979.184 807.186C1096.82 807.186 1192.19 711.822 1192.19 594.185C1192.19 476.548 1096.82 381.184 979.184 381.184C861.547 381.184 766.183 476.548 766.183 594.185C766.183 711.822 861.547 807.186 979.184 807.186Z" stroke="url(#paint1_radial_2139_2590)" stroke-opacity="0.1" stroke-width="50" stroke-miterlimit="1.5" stroke-linejoin="round"/>
<path d="M979.189 920.343C1159.32 920.343 1305.35 774.317 1305.35 594.185C1305.35 414.052 1159.32 268.026 979.189 268.026C799.056 268.026 653.03 414.052 653.03 594.185C653.03 774.317 799.056 920.343 979.189 920.343Z" stroke="url(#paint2_radial_2139_2590)" stroke-opacity="0.1" stroke-width="50" stroke-miterlimit="1.5" stroke-linejoin="round"/>
<path d="M979.19 1033.13C1221.61 1033.13 1418.13 836.607 1418.13 594.185C1418.13 351.762 1221.61 155.24 979.19 155.24C736.767 155.24 540.245 351.762 540.245 594.185C540.245 836.607 736.767 1033.13 979.19 1033.13Z" stroke="url(#paint3_radial_2139_2590)" stroke-opacity="0.1" stroke-width="50" stroke-miterlimit="1.5" stroke-linejoin="round"/>
<path d="M979.186 1139.72C1280.48 1139.72 1524.72 895.471 1524.72 594.181C1524.72 292.891 1280.48 48.6475 979.186 48.6475C677.896 48.6475 433.652 292.891 433.652 594.181C433.652 895.471 677.896 1139.72 979.186 1139.72Z" stroke="url(#paint4_radial_2139_2590)" stroke-opacity="0.1" stroke-width="50" stroke-miterlimit="1.5" stroke-linejoin="round"/>
<path d="M979.186 1139.72C1280.48 1139.72 1524.72 895.471 1524.72 594.181C1524.72 292.891 1280.48 48.6475 979.186 48.6475C677.896 48.6475 433.652 292.891 433.652 594.181C433.652 895.471 677.896 1139.72 979.186 1139.72Z" stroke="url(#paint5_radial_2139_2590)" stroke-opacity="0.1" stroke-width="50" stroke-miterlimit="1.5" stroke-linejoin="round"/>
<path d="M979.19 1246.59C1339.5 1246.59 1631.6 954.496 1631.6 594.182C1631.6 233.867 1339.5 -58.2251 979.19 -58.2251C618.875 -58.2251 326.783 233.867 326.783 594.182C326.783 954.496 618.875 1246.59 979.19 1246.59Z" stroke="url(#paint6_radial_2139_2590)" stroke-opacity="0.1" stroke-width="50" stroke-miterlimit="1.5" stroke-linejoin="round"/>
<path d="M979.19 1246.59C1339.5 1246.59 1631.6 954.496 1631.6 594.182C1631.6 233.867 1339.5 -58.2251 979.19 -58.2251C618.875 -58.2251 326.783 233.867 326.783 594.182C326.783 954.496 618.875 1246.59 979.19 1246.59Z" stroke="url(#paint7_radial_2139_2590)" stroke-opacity="0.1" stroke-width="50" stroke-miterlimit="1.5" stroke-linejoin="round"/>
<path d="M979.182 1356C1399.92 1356 1741 1014.92 1741 594.178C1741 173.437 1399.92 -167.64 979.182 -167.64C558.442 -167.64 217.365 173.437 217.365 594.178C217.365 1014.92 558.442 1356 979.182 1356Z" stroke="url(#paint8_radial_2139_2590)" stroke-opacity="0.1" stroke-width="50" stroke-miterlimit="1.5" stroke-linejoin="round"/>
<path d="M979.182 1356C1399.92 1356 1741 1014.92 1741 594.178C1741 173.437 1399.92 -167.64 979.182 -167.64C558.442 -167.64 217.365 173.437 217.365 594.178C217.365 1014.92 558.442 1356 979.182 1356Z" stroke="url(#paint9_radial_2139_2590)" stroke-opacity="0.1" stroke-width="50" stroke-miterlimit="1.5" stroke-linejoin="round"/>
<path d="M979.199 1463.86C1459.51 1463.86 1848.87 1074.49 1848.87 594.183C1848.87 113.875 1459.51 -275.492 979.199 -275.492C498.891 -275.492 109.525 113.875 109.525 594.183C109.525 1074.49 498.891 1463.86 979.199 1463.86Z" stroke="url(#paint10_radial_2139_2590)" stroke-opacity="0.1" stroke-width="50" stroke-miterlimit="1.5" stroke-linejoin="round"/>
<path d="M979.197 1574.43C1520.57 1574.43 1959.44 1135.56 1959.44 594.187C1959.44 52.8125 1520.57 -386.059 979.197 -386.059C437.823 -386.059 -1.0481 52.8125 -1.0481 594.187C-1.0481 1135.56 437.823 1574.43 979.197 1574.43Z" stroke="url(#paint11_radial_2139_2590)" stroke-opacity="0.1" stroke-width="50" stroke-miterlimit="1.5" stroke-linejoin="round"/>
<path d="M979.194 1688.46C1583.55 1688.46 2073.47 1198.54 2073.47 594.186C2073.47 -10.1674 1583.55 -500.093 979.194 -500.093C374.841 -500.093 -115.084 -10.1674 -115.084 594.186C-115.084 1198.54 374.841 1688.46 979.194 1688.46Z" stroke="url(#paint12_radial_2139_2590)" stroke-opacity="0.1" stroke-width="50" stroke-miterlimit="1.5" stroke-linejoin="round"/>
<path d="M979.195 1797.37C1643.7 1797.37 2182.39 1258.69 2182.39 594.18C2182.39 -70.3255 1643.7 -609.014 979.195 -609.014C314.69 -609.014 -223.998 -70.3255 -223.998 594.18C-223.998 1258.69 314.69 1797.37 979.195 1797.37Z" stroke="url(#paint13_radial_2139_2590)" stroke-opacity="0.1" stroke-width="50" stroke-miterlimit="1.5" stroke-linejoin="round"/>
<path d="M979.188 1902.04C1701.5 1902.04 2287.05 1316.49 2287.05 594.177C2287.05 -128.138 1701.5 -713.69 979.188 -713.69C256.873 -713.69 -328.678 -128.138 -328.678 594.177C-328.678 1316.49 256.873 1902.04 979.188 1902.04Z" stroke="url(#paint14_radial_2139_2590)" stroke-opacity="0.1" stroke-width="50" stroke-miterlimit="1.5" stroke-linejoin="round"/>
<path d="M979.186 2014.96C1763.86 2014.96 2399.97 1378.85 2399.97 594.173C2399.97 -190.505 1763.86 -826.613 979.186 -826.613C194.507 -826.613 -441.6 -190.505 -441.6 594.173C-441.6 1378.85 194.507 2014.96 979.186 2014.96Z" stroke="url(#paint15_radial_2139_2590)" stroke-opacity="0.1" stroke-width="50" stroke-miterlimit="1.5" stroke-linejoin="round"/>
<path d="M979.201 2123.43C1823.78 2123.43 2508.45 1438.76 2508.45 594.176C2508.45 -250.406 1823.78 -935.075 979.201 -935.075C134.619 -935.075 -550.049 -250.406 -550.049 594.176C-550.049 1438.76 134.619 2123.43 979.201 2123.43Z" stroke="url(#paint16_radial_2139_2590)" stroke-opacity="0.1" stroke-width="50" stroke-miterlimit="1.5" stroke-linejoin="round"/>
<path d="M979.205 2234.86C1885.33 2234.86 2619.89 1500.31 2619.89 594.18C2619.89 -311.945 1885.33 -1046.51 979.205 -1046.51C73.0792 -1046.51 -661.48 -311.945 -661.48 594.18C-661.48 1500.31 73.0792 2234.86 979.205 2234.86Z" stroke="url(#paint17_radial_2139_2590)" stroke-opacity="0.1" stroke-width="50" stroke-miterlimit="1.5" stroke-linejoin="round"/>
<path d="M979.186 2344.8C1946.03 2344.8 2729.82 1561.02 2729.82 594.172C2729.82 -372.674 1946.03 -1156.46 979.186 -1156.46C12.34 -1156.46 -771.443 -372.674 -771.443 594.172C-771.443 1561.02 12.34 2344.8 979.186 2344.8Z" stroke="url(#paint18_radial_2139_2590)" stroke-opacity="0.1" stroke-width="50" stroke-miterlimit="1.5" stroke-linejoin="round"/>
<path d="M979.206 2459.22C2009.24 2459.22 2844.25 1624.21 2844.25 594.18C2844.25 -435.852 2009.24 -1270.86 979.206 -1270.86C-50.8265 -1270.86 -885.832 -435.852 -885.832 594.18C-885.832 1624.21 -50.8265 2459.22 979.206 2459.22Z" stroke="url(#paint19_radial_2139_2590)" stroke-opacity="0.1" stroke-width="50" stroke-miterlimit="1.5" stroke-linejoin="round"/>
<path d="M979.2 2573.22C2072.2 2573.22 2958.24 1687.17 2958.24 594.177C2958.24 -498.818 2072.2 -1384.87 979.2 -1384.87C-113.796 -1384.87 -999.843 -498.818 -999.843 594.177C-999.843 1687.17 -113.796 2573.22 979.2 2573.22Z" stroke="url(#paint20_radial_2139_2590)" stroke-opacity="0.1" stroke-width="50" stroke-miterlimit="1.5" stroke-linejoin="round"/>
<path d="M979.199 2687.62C2135.38 2687.62 3072.65 1750.35 3072.65 594.174C3072.65 -562.006 2135.38 -1499.27 979.199 -1499.27C-176.981 -1499.27 -1114.25 -562.006 -1114.25 594.174C-1114.25 1750.35 -176.981 2687.62 979.199 2687.62Z" stroke="url(#paint21_radial_2139_2590)" stroke-opacity="0.1" stroke-width="50" stroke-miterlimit="1.5" stroke-linejoin="round"/>
<path d="M979.208 2797.57C2196.11 2797.57 3182.61 1811.08 3182.61 594.177C3182.61 -622.725 2196.11 -1609.22 979.208 -1609.22C-237.694 -1609.22 -1224.19 -622.725 -1224.19 594.177C-1224.19 1811.08 -237.694 2797.57 979.208 2797.57Z" stroke="url(#paint22_radial_2139_2590)" stroke-opacity="0.1" stroke-width="50" stroke-miterlimit="1.5" stroke-linejoin="round"/>
</g>
<g clip-path="url(#clip3_2139_2590)">
<path d="M939.192 696.042C995.445 696.042 1041.05 650.44 1041.05 594.186C1041.05 537.933 995.445 492.331 939.192 492.331C882.938 492.331 837.336 537.933 837.336 594.186C837.336 650.44 882.938 696.042 939.192 696.042Z" stroke="url(#paint23_radial_2139_2590)" stroke-opacity="0.1" stroke-width="50" stroke-miterlimit="1.5" stroke-linejoin="round"/>
<path d="M939.184 807.186C1056.82 807.186 1152.19 711.822 1152.19 594.185C1152.19 476.548 1056.82 381.184 939.184 381.184C821.547 381.184 726.183 476.548 726.183 594.185C726.183 711.822 821.547 807.186 939.184 807.186Z" stroke="url(#paint24_radial_2139_2590)" stroke-opacity="0.1" stroke-width="50" stroke-miterlimit="1.5" stroke-linejoin="round"/>
<path d="M939.189 920.343C1119.32 920.343 1265.35 774.317 1265.35 594.185C1265.35 414.052 1119.32 268.026 939.189 268.026C759.056 268.026 613.03 414.052 613.03 594.185C613.03 774.317 759.056 920.343 939.189 920.343Z" stroke="url(#paint25_radial_2139_2590)" stroke-opacity="0.1" stroke-width="50" stroke-miterlimit="1.5" stroke-linejoin="round"/>
<path d="M939.19 1033.13C1181.61 1033.13 1378.13 836.607 1378.13 594.185C1378.13 351.762 1181.61 155.24 939.19 155.24C696.767 155.24 500.245 351.762 500.245 594.185C500.245 836.607 696.767 1033.13 939.19 1033.13Z" stroke="url(#paint26_radial_2139_2590)" stroke-opacity="0.1" stroke-width="50" stroke-miterlimit="1.5" stroke-linejoin="round"/>
<path d="M939.186 1139.72C1240.48 1139.72 1484.72 895.471 1484.72 594.181C1484.72 292.891 1240.48 48.6475 939.186 48.6475C637.896 48.6475 393.652 292.891 393.652 594.181C393.652 895.471 637.896 1139.72 939.186 1139.72Z" stroke="url(#paint27_radial_2139_2590)" stroke-opacity="0.1" stroke-width="50" stroke-miterlimit="1.5" stroke-linejoin="round"/>
<path d="M939.186 1139.72C1240.48 1139.72 1484.72 895.471 1484.72 594.181C1484.72 292.891 1240.48 48.6475 939.186 48.6475C637.896 48.6475 393.652 292.891 393.652 594.181C393.652 895.471 637.896 1139.72 939.186 1139.72Z" stroke="url(#paint28_radial_2139_2590)" stroke-opacity="0.1" stroke-width="50" stroke-miterlimit="1.5" stroke-linejoin="round"/>
<path d="M939.19 1246.59C1299.5 1246.59 1591.6 954.496 1591.6 594.182C1591.6 233.867 1299.5 -58.2251 939.19 -58.2251C578.875 -58.2251 286.783 233.867 286.783 594.182C286.783 954.496 578.875 1246.59 939.19 1246.59Z" stroke="url(#paint29_radial_2139_2590)" stroke-opacity="0.1" stroke-width="50" stroke-miterlimit="1.5" stroke-linejoin="round"/>
<path d="M939.19 1246.59C1299.5 1246.59 1591.6 954.496 1591.6 594.182C1591.6 233.867 1299.5 -58.2251 939.19 -58.2251C578.875 -58.2251 286.783 233.867 286.783 594.182C286.783 954.496 578.875 1246.59 939.19 1246.59Z" stroke="url(#paint30_radial_2139_2590)" stroke-opacity="0.1" stroke-width="50" stroke-miterlimit="1.5" stroke-linejoin="round"/>
<path d="M939.182 1356C1359.92 1356 1701 1014.92 1701 594.178C1701 173.437 1359.92 -167.64 939.182 -167.64C518.442 -167.64 177.365 173.437 177.365 594.178C177.365 1014.92 518.442 1356 939.182 1356Z" stroke="url(#paint31_radial_2139_2590)" stroke-opacity="0.1" stroke-width="50" stroke-miterlimit="1.5" stroke-linejoin="round"/>
<path d="M939.182 1356C1359.92 1356 1701 1014.92 1701 594.178C1701 173.437 1359.92 -167.64 939.182 -167.64C518.442 -167.64 177.365 173.437 177.365 594.178C177.365 1014.92 518.442 1356 939.182 1356Z" stroke="url(#paint32_radial_2139_2590)" stroke-opacity="0.1" stroke-width="50" stroke-miterlimit="1.5" stroke-linejoin="round"/>
<path d="M939.199 1463.86C1419.51 1463.86 1808.87 1074.49 1808.87 594.183C1808.87 113.875 1419.51 -275.492 939.199 -275.492C458.891 -275.492 69.5249 113.875 69.5249 594.183C69.5249 1074.49 458.891 1463.86 939.199 1463.86Z" stroke="url(#paint33_radial_2139_2590)" stroke-opacity="0.1" stroke-width="50" stroke-miterlimit="1.5" stroke-linejoin="round"/>
<path d="M939.197 1574.43C1480.57 1574.43 1919.44 1135.56 1919.44 594.187C1919.44 52.8125 1480.57 -386.059 939.197 -386.059C397.823 -386.059 -41.0481 52.8125 -41.0481 594.187C-41.0481 1135.56 397.823 1574.43 939.197 1574.43Z" stroke="url(#paint34_radial_2139_2590)" stroke-opacity="0.1" stroke-width="50" stroke-miterlimit="1.5" stroke-linejoin="round"/>
<path d="M939.194 1688.46C1543.55 1688.46 2033.47 1198.54 2033.47 594.186C2033.47 -10.1674 1543.55 -500.093 939.194 -500.093C334.841 -500.093 -155.084 -10.1674 -155.084 594.186C-155.084 1198.54 334.841 1688.46 939.194 1688.46Z" stroke="url(#paint35_radial_2139_2590)" stroke-opacity="0.1" stroke-width="50" stroke-miterlimit="1.5" stroke-linejoin="round"/>
<path d="M939.195 1797.37C1603.7 1797.37 2142.39 1258.69 2142.39 594.18C2142.39 -70.3255 1603.7 -609.014 939.195 -609.014C274.69 -609.014 -263.998 -70.3255 -263.998 594.18C-263.998 1258.69 274.69 1797.37 939.195 1797.37Z" stroke="url(#paint36_radial_2139_2590)" stroke-opacity="0.1" stroke-width="50" stroke-miterlimit="1.5" stroke-linejoin="round"/>
<path d="M939.188 1902.04C1661.5 1902.04 2247.05 1316.49 2247.05 594.177C2247.05 -128.138 1661.5 -713.69 939.188 -713.69C216.873 -713.69 -368.678 -128.138 -368.678 594.177C-368.678 1316.49 216.873 1902.04 939.188 1902.04Z" stroke="url(#paint37_radial_2139_2590)" stroke-opacity="0.1" stroke-width="50" stroke-miterlimit="1.5" stroke-linejoin="round"/>
<path d="M939.186 2014.96C1723.86 2014.96 2359.97 1378.85 2359.97 594.173C2359.97 -190.505 1723.86 -826.613 939.186 -826.613C154.507 -826.613 -481.6 -190.505 -481.6 594.173C-481.6 1378.85 154.507 2014.96 939.186 2014.96Z" stroke="url(#paint38_radial_2139_2590)" stroke-opacity="0.1" stroke-width="50" stroke-miterlimit="1.5" stroke-linejoin="round"/>
<path d="M939.201 2123.43C1783.78 2123.43 2468.45 1438.76 2468.45 594.176C2468.45 -250.406 1783.78 -935.075 939.201 -935.075C94.6194 -935.075 -590.049 -250.406 -590.049 594.176C-590.049 1438.76 94.6194 2123.43 939.201 2123.43Z" stroke="url(#paint39_radial_2139_2590)" stroke-opacity="0.1" stroke-width="50" stroke-miterlimit="1.5" stroke-linejoin="round"/>
<path d="M939.205 2234.86C1845.33 2234.86 2579.89 1500.31 2579.89 594.18C2579.89 -311.945 1845.33 -1046.51 939.205 -1046.51C33.0792 -1046.51 -701.48 -311.945 -701.48 594.18C-701.48 1500.31 33.0792 2234.86 939.205 2234.86Z" stroke="url(#paint40_radial_2139_2590)" stroke-opacity="0.1" stroke-width="50" stroke-miterlimit="1.5" stroke-linejoin="round"/>
<path d="M939.186 2344.8C1906.03 2344.8 2689.82 1561.02 2689.82 594.172C2689.82 -372.674 1906.03 -1156.46 939.186 -1156.46C-27.66 -1156.46 -811.443 -372.674 -811.443 594.172C-811.443 1561.02 -27.66 2344.8 939.186 2344.8Z" stroke="url(#paint41_radial_2139_2590)" stroke-opacity="0.1" stroke-width="50" stroke-miterlimit="1.5" stroke-linejoin="round"/>
<path d="M939.206 2459.22C1969.24 2459.22 2804.25 1624.21 2804.25 594.18C2804.25 -435.852 1969.24 -1270.86 939.206 -1270.86C-90.8265 -1270.86 -925.832 -435.852 -925.832 594.18C-925.832 1624.21 -90.8265 2459.22 939.206 2459.22Z" stroke="url(#paint42_radial_2139_2590)" stroke-opacity="0.1" stroke-width="50" stroke-miterlimit="1.5" stroke-linejoin="round"/>
<path d="M939.2 2573.22C2032.2 2573.22 2918.24 1687.17 2918.24 594.177C2918.24 -498.818 2032.2 -1384.87 939.2 -1384.87C-153.796 -1384.87 -1039.84 -498.818 -1039.84 594.177C-1039.84 1687.17 -153.796 2573.22 939.2 2573.22Z" stroke="url(#paint43_radial_2139_2590)" stroke-opacity="0.1" stroke-width="50" stroke-miterlimit="1.5" stroke-linejoin="round"/>
<path d="M939.199 2687.62C2095.38 2687.62 3032.65 1750.35 3032.65 594.174C3032.65 -562.006 2095.38 -1499.27 939.199 -1499.27C-216.981 -1499.27 -1154.25 -562.006 -1154.25 594.174C-1154.25 1750.35 -216.981 2687.62 939.199 2687.62Z" stroke="url(#paint44_radial_2139_2590)" stroke-opacity="0.1" stroke-width="50" stroke-miterlimit="1.5" stroke-linejoin="round"/>
<path d="M939.208 2797.57C2156.11 2797.57 3142.61 1811.08 3142.61 594.177C3142.61 -622.725 2156.11 -1609.22 939.208 -1609.22C-277.694 -1609.22 -1264.19 -622.725 -1264.19 594.177C-1264.19 1811.08 -277.694 2797.57 939.208 2797.57Z" stroke="url(#paint45_radial_2139_2590)" stroke-opacity="0.1" stroke-width="50" stroke-miterlimit="1.5" stroke-linejoin="round"/>
</g>
</g>
</g>
<defs>
<radialGradient id="paint0_radial_2139_2590" cx="0" cy="0" r="1" gradientUnits="userSpaceOnUse" gradientTransform="translate(979.192 594.186) rotate(90) scale(101.856)">
<stop offset="200" stop-color="#3640f3"/>
<stop offset="1"/>
</radialGradient>
<radialGradient id="paint1_radial_2139_2590" cx="0" cy="0" r="1" gradientUnits="userSpaceOnUse" gradientTransform="translate(979.184 594.185) rotate(90) scale(213.001)">
<stop offset="200" stop-color="#3640f3"/>
<stop offset="1"/>
</radialGradient>
<radialGradient id="paint2_radial_2139_2590" cx="0" cy="0" r="1" gradientUnits="userSpaceOnUse" gradientTransform="translate(979.189 594.185) rotate(90) scale(326.159)">
<stop offset="200" stop-color="#3640f3"/>
<stop offset="1"/>
</radialGradient>
<radialGradient id="paint3_radial_2139_2590" cx="0" cy="0" r="1" gradientUnits="userSpaceOnUse" gradientTransform="translate(979.19 594.185) rotate(90) scale(438.944)">
<stop offset="200" stop-color="#3640f3"/>
<stop offset="1"/>
</radialGradient>
<radialGradient id="paint4_radial_2139_2590" cx="0" cy="0" r="1" gradientUnits="userSpaceOnUse" gradientTransform="translate(979.186 594.181) rotate(90) scale(545.534)">
<stop offset="200" stop-color="#3640f3"/>
<stop offset="1"/>
</radialGradient>
<radialGradient id="paint5_radial_2139_2590" cx="0" cy="0" r="1" gradientUnits="userSpaceOnUse" gradientTransform="translate(979.186 594.181) rotate(90) scale(545.534)">
<stop offset="200" stop-color="#3640f3"/>
<stop offset="1"/>
</radialGradient>
<radialGradient id="paint6_radial_2139_2590" cx="0" cy="0" r="1" gradientUnits="userSpaceOnUse" gradientTransform="translate(979.19 594.182) rotate(90) scale(652.407)">
<stop offset="200" stop-color="#3640f3"/>
<stop offset="1"/>
</radialGradient>
<radialGradient id="paint7_radial_2139_2590" cx="0" cy="0" r="1" gradientUnits="userSpaceOnUse" gradientTransform="translate(979.19 594.182) rotate(90) scale(652.407)">
<stop offset="200" stop-color="#3640f3"/>
<stop offset="1"/>
</radialGradient>
<radialGradient id="paint8_radial_2139_2590" cx="0" cy="0" r="1" gradientUnits="userSpaceOnUse" gradientTransform="translate(979.183 594.178) rotate(90) scale(761.818)">
<stop offset="200" stop-color="#3640f3"/>
<stop offset="1"/>
</radialGradient>
<radialGradient id="paint9_radial_2139_2590" cx="0" cy="0" r="1" gradientUnits="userSpaceOnUse" gradientTransform="translate(979.183 594.178) rotate(90) scale(761.818)">
<stop offset="200" stop-color="#3640f3"/>
<stop offset="1"/>
</radialGradient>
<radialGradient id="paint10_radial_2139_2590" cx="0" cy="0" r="1" gradientUnits="userSpaceOnUse" gradientTransform="translate(979.199 594.183) rotate(90) scale(869.674)">
<stop offset="200" stop-color="#3640f3"/>
<stop offset="1"/>
</radialGradient>
<radialGradient id="paint11_radial_2139_2590" cx="0" cy="0" r="1" gradientUnits="userSpaceOnUse" gradientTransform="translate(979.198 594.187) rotate(90) scale(980.246)">
<stop offset="200" stop-color="#3640f3"/>
<stop offset="1"/>
</radialGradient>
<radialGradient id="paint12_radial_2139_2590" cx="0" cy="0" r="1" gradientUnits="userSpaceOnUse" gradientTransform="translate(979.195 594.186) rotate(90) scale(1094.28)">
<stop offset="200" stop-color="#3640f3"/>
<stop offset="1"/>
</radialGradient>
<radialGradient id="paint13_radial_2139_2590" cx="0" cy="0" r="1" gradientUnits="userSpaceOnUse" gradientTransform="translate(979.196 594.18) rotate(90) scale(1203.19)">
<stop offset="200" stop-color="#3640f3"/>
<stop offset="1"/>
</radialGradient>
<radialGradient id="paint14_radial_2139_2590" cx="0" cy="0" r="1" gradientUnits="userSpaceOnUse" gradientTransform="translate(979.188 594.177) rotate(90) scale(1307.87)">
<stop offset="200" stop-color="#3640f3"/>
<stop offset="1"/>
</radialGradient>
<radialGradient id="paint15_radial_2139_2590" cx="0" cy="0" r="1" gradientUnits="userSpaceOnUse" gradientTransform="translate(979.186 594.173) rotate(90) scale(1420.79)">
<stop offset="200" stop-color="#3640f3"/>
<stop offset="1"/>
</radialGradient>
<radialGradient id="paint16_radial_2139_2590" cx="0" cy="0" r="1" gradientUnits="userSpaceOnUse" gradientTransform="translate(979.202 594.176) rotate(90) scale(1529.25)">
<stop offset="200" stop-color="#3640f3"/>
<stop offset="1"/>
</radialGradient>
<radialGradient id="paint17_radial_2139_2590" cx="0" cy="0" r="1" gradientUnits="userSpaceOnUse" gradientTransform="translate(979.205 594.18) rotate(90) scale(1640.69)">
<stop offset="200" stop-color="#3640f3"/>
<stop offset="1"/>
</radialGradient>
<radialGradient id="paint18_radial_2139_2590" cx="0" cy="0" r="1" gradientUnits="userSpaceOnUse" gradientTransform="translate(979.187 594.172) rotate(90) scale(1750.63)">
<stop offset="200" stop-color="#3640f3"/>
<stop offset="1"/>
</radialGradient>
<radialGradient id="paint19_radial_2139_2590" cx="0" cy="0" r="1" gradientUnits="userSpaceOnUse" gradientTransform="translate(979.206 594.18) rotate(90) scale(1865.04)">
<stop offset="200" stop-color="#3640f3"/>
<stop offset="1"/>
</radialGradient>
<radialGradient id="paint20_radial_2139_2590" cx="0" cy="0" r="1" gradientUnits="userSpaceOnUse" gradientTransform="translate(979.2 594.177) rotate(90) scale(1979.04)">
<stop offset="200" stop-color="#3640f3"/>
<stop offset="1"/>
</radialGradient>
<radialGradient id="paint21_radial_2139_2590" cx="0" cy="0" r="1" gradientUnits="userSpaceOnUse" gradientTransform="translate(979.199 594.174) rotate(90) scale(2093.45)">
<stop offset="200" stop-color="#3640f3"/>
<stop offset="1"/>
</radialGradient>
<radialGradient id="paint22_radial_2139_2590" cx="0" cy="0" r="1" gradientUnits="userSpaceOnUse" gradientTransform="translate(979.209 594.177) rotate(90) scale(2203.4)">
<stop offset="200" stop-color="#3640f3"/>
<stop offset="1"/>
</radialGradient>
<radialGradient id="paint23_radial_2139_2590" cx="0" cy="0" r="1" gradientUnits="userSpaceOnUse" gradientTransform="translate(939.192 594.186) rotate(90) scale(101.856)">
<stop offset="200" stop-color="#3640f3"/>
<stop offset="1"/>
</radialGradient>
<radialGradient id="paint24_radial_2139_2590" cx="0" cy="0" r="1" gradientUnits="userSpaceOnUse" gradientTransform="translate(939.184 594.185) rotate(90) scale(213.001)">
<stop offset="200" stop-color="#3640f3"/>
<stop offset="1"/>
</radialGradient>
<radialGradient id="paint25_radial_2139_2590" cx="0" cy="0" r="1" gradientUnits="userSpaceOnUse" gradientTransform="translate(939.189 594.185) rotate(90) scale(326.159)">
<stop offset="200" stop-color="#3640f3"/>
<stop offset="1"/>
</radialGradient>
<radialGradient id="paint26_radial_2139_2590" cx="0" cy="0" r="1" gradientUnits="userSpaceOnUse" gradientTransform="translate(939.19 594.185) rotate(90) scale(438.944)">
<stop offset="200" stop-color="#3640f3"/>
<stop offset="1"/>
</radialGradient>
<radialGradient id="paint27_radial_2139_2590" cx="0" cy="0" r="1" gradientUnits="userSpaceOnUse" gradientTransform="translate(939.186 594.181) rotate(90) scale(545.534)">
<stop offset="200" stop-color="#3640f3"/>
<stop offset="1"/>
</radialGradient>
<radialGradient id="paint28_radial_2139_2590" cx="0" cy="0" r="1" gradientUnits="userSpaceOnUse" gradientTransform="translate(939.186 594.181) rotate(90) scale(545.534)">
<stop offset="200" stop-color="#3640f3"/>
<stop offset="1"/>
</radialGradient>
<radialGradient id="paint29_radial_2139_2590" cx="0" cy="0" r="1" gradientUnits="userSpaceOnUse" gradientTransform="translate(939.19 594.182) rotate(90) scale(652.407)">
<stop offset="200" stop-color="#3640f3"/>
<stop offset="1"/>
</radialGradient>
<radialGradient id="paint30_radial_2139_2590" cx="0" cy="0" r="1" gradientUnits="userSpaceOnUse" gradientTransform="translate(939.19 594.182) rotate(90) scale(652.407)">
<stop offset="200" stop-color="#3640f3"/>
<stop offset="1"/>
</radialGradient>
<radialGradient id="paint31_radial_2139_2590" cx="0" cy="0" r="1" gradientUnits="userSpaceOnUse" gradientTransform="translate(939.183 594.178) rotate(90) scale(761.818)">
<stop offset="200" stop-color="#3640f3"/>
<stop offset="1"/>
</radialGradient>
<radialGradient id="paint32_radial_2139_2590" cx="0" cy="0" r="1" gradientUnits="userSpaceOnUse" gradientTransform="translate(939.183 594.178) rotate(90) scale(761.818)">
<stop offset="200" stop-color="#3640f3"/>
<stop offset="1"/>
</radialGradient>
<radialGradient id="paint33_radial_2139_2590" cx="0" cy="0" r="1" gradientUnits="userSpaceOnUse" gradientTransform="translate(939.199 594.183) rotate(90) scale(869.674)">
<stop offset="200" stop-color="#3640f3"/>
<stop offset="1"/>
</radialGradient>
<radialGradient id="paint34_radial_2139_2590" cx="0" cy="0" r="1" gradientUnits="userSpaceOnUse" gradientTransform="translate(939.198 594.187) rotate(90) scale(980.246)">
<stop offset="200" stop-color="#3640f3"/>
<stop offset="1"/>
</radialGradient>
<radialGradient id="paint35_radial_2139_2590" cx="0" cy="0" r="1" gradientUnits="userSpaceOnUse" gradientTransform="translate(939.195 594.186) rotate(90) scale(1094.28)">
<stop offset="200" stop-color="red"/>
<stop offset="1"/>
</radialGradient>
<radialGradient id="paint36_radial_2139_2590" cx="0" cy="0" r="1" gradientUnits="userSpaceOnUse" gradientTransform="translate(939.196 594.18) rotate(90) scale(1203.19)">
<stop offset="200" stop-color="#3640f3"/>
<stop offset="1"/>
</radialGradient>
<radialGradient id="paint37_radial_2139_2590" cx="0" cy="0" r="1" gradientUnits="userSpaceOnUse" gradientTransform="translate(939.188 594.177) rotate(90) scale(1307.87)">
<stop offset="200" stop-color="#3640f3"/>
<stop offset="1"/>
</radialGradient>
<radialGradient id="paint38_radial_2139_2590" cx="0" cy="0" r="1" gradientUnits="userSpaceOnUse" gradientTransform="translate(939.186 594.173) rotate(90) scale(1420.79)">
<stop offset="200" stop-color="#3640f3"/>
<stop offset="1"/>
</radialGradient>
<radialGradient id="paint39_radial_2139_2590" cx="0" cy="0" r="1" gradientUnits="userSpaceOnUse" gradientTransform="translate(939.202 594.176) rotate(90) scale(1529.25)">
<stop offset="200" stop-color="#3640f3"/>
<stop offset="1"/>
</radialGradient>
<radialGradient id="paint40_radial_2139_2590" cx="0" cy="0" r="1" gradientUnits="userSpaceOnUse" gradientTransform="translate(939.205 594.18) rotate(90) scale(1640.69)">
<stop offset="200" stop-color="#3640f3"/>
<stop offset="1"/>
</radialGradient>
<radialGradient id="paint41_radial_2139_2590" cx="0" cy="0" r="1" gradientUnits="userSpaceOnUse" gradientTransform="translate(939.187 594.172) rotate(90) scale(1750.63)">
<stop offset="200" stop-color="#3640f3"/>
<stop offset="1"/>
</radialGradient>
<radialGradient id="paint42_radial_2139_2590" cx="0" cy="0" r="1" gradientUnits="userSpaceOnUse" gradientTransform="translate(939.206 594.18) rotate(90) scale(1865.04)">
<stop offset="200" stop-color="#3640f3"/>
<stop offset="1"/>
</radialGradient>
<radialGradient id="paint43_radial_2139_2590" cx="0" cy="0" r="1" gradientUnits="userSpaceOnUse" gradientTransform="translate(939.2 594.177) rotate(90) scale(1979.04)">
<stop offset="200" stop-color="#3640f3"/>
<stop offset="1"/>
</radialGradient>
<radialGradient id="paint44_radial_2139_2590" cx="0" cy="0" r="1" gradientUnits="userSpaceOnUse" gradientTransform="translate(939.199 594.174) rotate(90) scale(2093.45)">
<stop offset="200" stop-color="#3640f3"/>
<stop offset="1"/>
</radialGradient>
<radialGradient id="paint45_radial_2139_2590" cx="0" cy="0" r="1" gradientUnits="userSpaceOnUse" gradientTransform="translate(939.209 594.177) rotate(90) scale(2203.4)">
<stop offset="200" stop-color="#3640f3"/>
<stop offset="1"/>
</radialGradient>
<clipPath id="clip0_2139_2590">
<rect width="1920" height="1189" fill="#3640f3"/>
</clipPath>
<clipPath id="clip1_2139_2590">
<rect width="1920" height="1189" fill="#3640f3"/>
</clipPath>
<clipPath id="clip2_2139_2590">
<rect width="4455" height="4455" fill="#3640f3" transform="translate(-1248 -1633)"/>
</clipPath>
<clipPath id="clip3_2139_2590">
<rect width="4455" height="4455" fill="#3640f3" transform="translate(-1288 -1633)"/>
</clipPath>
</defs>
</svg>
